<svg xmlns="http://www.w3.org/2000/svg" viewBox="0 0 600 440"><style>.m{stroke:#9a6b38;stroke-width:18;stroke-linecap:round}.h{fill:#b64035}</style><line class="m" x1="300" y1="45" x2="105" y2="355"/><circle class="h" cx="300" cy="45" r="10"/><circle class="h" cx="105" cy="355" r="10"/><line class="m" x1="300" y1="45" x2="495" y2="355"/><circle class="h" cx="300" cy="45" r="10"/><circle class="h" cx="495" cy="355" r="10"/><line class="m" x1="105" y1="355" x2="495" y2="355"/><circle class="h" cx="105" cy="355" r="10"/><circle class="h" cx="495" cy="355" r="10"/><line class="m" x1="300" y1="45" x2="300" y2="245"/><circle class="h" cx="300" cy="45" r="10"/><circle class="h" cx="300" cy="245" r="10"/><line class="m" x1="105" y1="355" x2="300" y2="245"/><circle class="h" cx="105" cy="355" r="10"/><circle class="h" cx="300" cy="245" r="10"/><line class="m" x1="300" y1="245" x2="495" y2="355"/><circle class="h" cx="300" cy="245" r="10"/><circle class="h" cx="495" cy="355" r="10"/></svg>